<?xml version="1.0" standalone="no"?><svg xmlns="http://www.w3.org/2000/svg" xmlns:xlink="http://www.w3.org/1999/xlink" style="isolation:isolate" viewBox="0 0 87 85" width="87" height="85"><defs><clipPath id="_clipPath_RhsOZklQf5rvtUBwhXUXSujAYanUBMVb"><rect width="87" height="85"/></clipPath></defs><g clip-path="url(#_clipPath_RhsOZklQf5rvtUBwhXUXSujAYanUBMVb)"><g><path d=" M 1.672 0 L 6.672 0 L 6.672 9 L 1.672 9 L 1.672 0 Z " fill-rule="evenodd" fill="rgb(84,84,84)"/><path d=" M 34.672 0 L 38.672 0 L 38.672 9 L 34.672 9 L 34.672 0 Z " fill-rule="evenodd" fill="rgb(84,84,84)"/><path d=" M 39.672 0 L 43.672 0 L 43.672 9 L 39.672 9 L 39.672 0 Z " fill-rule="evenodd" fill="rgb(84,84,84)"/><path d=" M 44.672 0 L 53.672 0 L 53.672 9 L 44.672 9 L 44.672 0 Z " fill-rule="evenodd" fill="rgb(84,84,84)"/><path d=" M 67.672 0 L 81.672 0 L 81.672 9 L 67.672 9 L 67.672 0 Z " fill-rule="evenodd" fill="rgb(84,84,84)"/><path d=" M 82.672 0 L 86.672 0 L 86.672 9 L 82.672 9 L 82.672 0 Z " fill-rule="evenodd" fill="rgb(84,84,84)"/><path d=" M 1.672 19 L 5.672 19 L 5.672 28 L 1.672 28 L 1.672 19 Z " fill-rule="evenodd" fill="rgb(84,84,84)"/><path d=" M 6.672 19 L 15.672 19 L 15.672 28 L 6.672 28 L 6.672 19 Z " fill-rule="evenodd" fill="rgb(84,84,84)"/><path d=" M 16.672 19 L 20.672 19 L 20.672 28 L 16.672 28 L 16.672 19 Z " fill-rule="evenodd" fill="rgb(84,84,84)"/><path d=" M 34.672 19 L 38.672 19 L 38.672 28 L 34.672 28 L 34.672 19 Z " fill-rule="evenodd" fill="rgb(84,84,84)"/><path d=" M 39.672 19 L 53.672 19 L 53.672 28 L 39.672 28 L 39.672 19 Z " fill-rule="evenodd" fill="rgb(84,84,84)"/><path d=" M 67.672 19 L 72.672 19 L 72.672 28 L 67.672 28 L 67.672 19 Z " fill-rule="evenodd" fill="rgb(84,84,84)"/><path d=" M 1.672 38 L 20.672 38 L 20.672 47 L 1.672 47 L 1.672 38 Z " fill-rule="evenodd" fill="rgb(84,84,84)"/><path d=" M 34.672 38 L 46.672 38 L 46.672 47 L 34.672 47 L 34.672 38 Z " fill-rule="evenodd" fill="rgb(84,84,84)"/><path d=" M 48.672 38 L 53.672 38 L 53.672 47 L 48.672 47 L 48.672 38 Z " fill-rule="evenodd" fill="rgb(84,84,84)"/><path d=" M 67.672 38 L 71.672 38 L 71.672 47 L 67.672 47 L 67.672 38 Z " fill-rule="evenodd" fill="rgb(84,84,84)"/><path d=" M 72.672 38 L 76.672 38 L 76.672 47 L 72.672 47 L 72.672 38 Z " fill-rule="evenodd" fill="rgb(84,84,84)"/><path d=" M 77.672 38 L 81.672 38 L 81.672 47 L 77.672 47 L 77.672 38 Z " fill-rule="evenodd" fill="rgb(84,84,84)"/><path d=" M 82.672 38 L 86.672 38 L 86.672 47 L 82.672 47 L 82.672 38 Z " fill-rule="evenodd" fill="rgb(84,84,84)"/><path d=" M 1.672 57 L 10.672 57 L 10.672 66 L 1.672 66 L 1.672 57 Z " fill-rule="evenodd" fill="rgb(84,84,84)"/><path d=" M 11.672 57 L 15.672 57 L 15.672 66 L 11.672 66 L 11.672 57 Z " fill-rule="evenodd" fill="rgb(84,84,84)"/><path d=" M 16.672 57 L 20.672 57 L 20.672 66 L 16.672 66 L 16.672 57 Z " fill-rule="evenodd" fill="rgb(84,84,84)"/><path d=" M 34.672 57 L 43.672 57 L 43.672 66 L 34.672 66 L 34.672 57 Z " fill-rule="evenodd" fill="rgb(84,84,84)"/><path d=" M 44.672 57 L 53.672 57 L 53.672 66 L 44.672 66 L 44.672 57 Z " fill-rule="evenodd" fill="rgb(84,84,84)"/><path d=" M 67.672 57 L 70.672 57 L 70.672 66 L 67.672 66 L 67.672 57 Z " fill-rule="evenodd" fill="rgb(84,84,84)"/><path d=" M -0.328 76 L 2.672 76 L 2.672 85 L -0.328 85 L -0.328 76 Z " fill-rule="evenodd" fill="rgb(84,84,84)"/><path d=" M 3.672 76 L 6.672 76 L 6.672 85 L 3.672 85 L 3.672 76 Z " fill-rule="evenodd" fill="rgb(84,84,84)"/><path d=" M 7.672 76 L 10.672 76 L 10.672 85 L 7.672 85 L 7.672 76 Z " fill-rule="evenodd" fill="rgb(84,84,84)"/><path d=" M 11.672 76 L 14.672 76 L 14.672 85 L 11.672 85 L 11.672 76 Z " fill-rule="evenodd" fill="rgb(84,84,84)"/><path d=" M 15.672 76 L 18.672 76 L 18.672 85 L 15.672 85 L 15.672 76 Z " fill-rule="evenodd" fill="rgb(84,84,84)"/><path d=" M 19.672 76 L 22.672 76 L 22.672 85 L 19.672 85 L 19.672 76 Z " fill-rule="evenodd" fill="rgb(84,84,84)"/><path d=" M 71.672 57 L 74.672 57 L 74.672 66 L 71.672 66 L 71.672 57 Z " fill-rule="evenodd" fill="rgb(84,84,84)"/><path d=" M 75.672 57 L 78.672 57 L 78.672 66 L 75.672 66 L 75.672 57 Z " fill-rule="evenodd" fill="rgb(84,84,84)"/><path d=" M 79.672 57 L 82.672 57 L 82.672 66 L 79.672 66 L 79.672 57 Z " fill-rule="evenodd" fill="rgb(84,84,84)"/><path d=" M 83.672 57 L 86.672 57 L 86.672 66 L 83.672 66 L 83.672 57 Z " fill-rule="evenodd" fill="rgb(84,84,84)"/><path d=" M 74.672 19 L 79.672 19 L 79.672 28 L 74.672 28 L 74.672 19 Z " fill-rule="evenodd" fill="rgb(84,84,84)"/><path d=" M 81.672 19 L 86.672 19 L 86.672 28 L 81.672 28 L 81.672 19 Z " fill-rule="evenodd" fill="rgb(84,84,84)"/><path d=" M 8.672 0 L 20.672 0 L 20.672 9 L 8.672 9 L 8.672 0 Z " fill-rule="evenodd" fill="rgb(84,84,84)"/></g><path d=" M 35.813 84.905 L 35 84.905 L 37.223 79.118 L 38.048 79.118 L 40.416 84.905 L 39.544 84.905 L 38.869 83.152 L 36.449 83.152 L 35.813 84.905 Z  M 37.306 80.831 L 36.67 82.529 L 38.632 82.529 L 38.028 80.926 L 38.028 80.926 Q 37.752 80.196 37.617 79.726 L 37.617 79.726 L 37.617 79.726 Q 37.507 80.282 37.306 80.831 L 37.306 80.831 Z  M 44.321 84.905 L 43.685 84.905 L 43.685 84.289 L 43.685 84.289 Q 43.196 85 42.355 85 L 42.355 85 L 42.355 85 Q 41.984 85 41.662 84.858 L 41.662 84.858 L 41.662 84.858 Q 41.34 84.716 41.184 84.501 L 41.184 84.501 L 41.184 84.501 Q 41.028 84.285 40.965 83.974 L 40.965 83.974 L 40.965 83.974 Q 40.922 83.764 40.922 83.31 L 40.922 83.31 L 40.922 80.713 L 41.632 80.713 L 41.632 83.038 L 41.632 83.038 Q 41.632 83.595 41.676 83.788 L 41.676 83.788 L 41.676 83.788 Q 41.743 84.068 41.96 84.228 L 41.96 84.228 L 41.96 84.228 Q 42.177 84.388 42.497 84.388 L 42.497 84.388 L 42.497 84.388 Q 42.817 84.388 43.097 84.224 L 43.097 84.224 L 43.097 84.224 Q 43.377 84.06 43.494 83.778 L 43.494 83.778 L 43.494 83.778 Q 43.61 83.496 43.61 82.959 L 43.61 82.959 L 43.61 80.713 L 44.321 80.713 L 44.321 84.905 Z  M 46.986 84.27 L 46.986 84.27 L 47.088 84.897 L 47.088 84.897 Q 46.788 84.961 46.551 84.961 L 46.551 84.961 L 46.551 84.961 Q 46.164 84.961 45.951 84.838 L 45.951 84.838 L 45.951 84.838 Q 45.738 84.716 45.651 84.516 L 45.651 84.516 L 45.651 84.516 Q 45.564 84.317 45.564 83.677 L 45.564 83.677 L 45.564 81.265 L 45.043 81.265 L 45.043 80.713 L 45.564 80.713 L 45.564 79.674 L 46.271 79.248 L 46.271 80.713 L 46.986 80.713 L 46.986 81.265 L 46.271 81.265 L 46.271 83.717 L 46.271 83.717 Q 46.271 84.021 46.308 84.108 L 46.308 84.108 L 46.308 84.108 Q 46.346 84.195 46.431 84.246 L 46.431 84.246 L 46.431 84.246 Q 46.516 84.297 46.674 84.297 L 46.674 84.297 L 46.674 84.297 Q 46.792 84.297 46.986 84.27 Z  M 47.416 82.809 L 47.416 82.809 L 47.416 82.809 Q 47.416 81.644 48.063 81.084 L 48.063 81.084 L 48.063 81.084 Q 48.604 80.618 49.382 80.618 L 49.382 80.618 L 49.382 80.618 Q 50.246 80.618 50.795 81.184 L 50.795 81.184 L 50.795 81.184 Q 51.344 81.751 51.344 82.75 L 51.344 82.75 L 51.344 82.75 Q 51.344 83.559 51.101 84.023 L 51.101 84.023 L 51.101 84.023 Q 50.858 84.487 50.394 84.743 L 50.394 84.743 L 50.394 84.743 Q 49.931 85 49.382 85 L 49.382 85 L 49.382 85 Q 48.501 85 47.959 84.435 L 47.959 84.435 L 47.959 84.435 Q 47.416 83.871 47.416 82.809 Z  M 48.146 82.809 L 48.146 82.809 L 48.146 82.809 Q 48.146 83.614 48.498 84.015 L 48.498 84.015 L 48.498 84.015 Q 48.849 84.416 49.382 84.416 L 49.382 84.416 L 49.382 84.416 Q 49.911 84.416 50.262 84.013 L 50.262 84.013 L 50.262 84.013 Q 50.614 83.61 50.614 82.785 L 50.614 82.785 L 50.614 82.785 Q 50.614 82.008 50.26 81.607 L 50.26 81.607 L 50.26 81.607 Q 49.907 81.206 49.382 81.206 L 49.382 81.206 L 49.382 81.206 Q 48.849 81.206 48.498 81.605 L 48.498 81.605 L 48.498 81.605 Q 48.146 82.004 48.146 82.809 Z " fill="rgb(0,0,0)"/></g></svg>