<?xml version="1.0" standalone="no"?><!-- Generator: Gravit.io --><svg xmlns="http://www.w3.org/2000/svg" xmlns:xlink="http://www.w3.org/1999/xlink" style="isolation:isolate" viewBox="0 0 224 280" width="224" height="280"><defs><clipPath id="_clipPath_JRlkJWP03LR1GAWVlVkyvxW9dv3v9C5c"><rect width="224" height="280"/></clipPath></defs><g clip-path="url(#_clipPath_JRlkJWP03LR1GAWVlVkyvxW9dv3v9C5c)"><g><path d="M 8.492 5 L 24.332 5 C 25.127 5 25.772 5.645 25.772 6.44 L 25.772 21.56 C 25.772 22.355 25.127 23 24.332 23 L 8.492 23 C 7.698 23 7.052 22.355 7.052 21.56 L 7.052 6.44 C 7.052 5.645 7.698 5 8.492 5 Z" style="stroke:none;fill:#DBDADA;stroke-miterlimit:10;"/><path d=" M 8.492 5 L 24.332 5 C 25.128 5 25.772 5.645 25.772 6.44 L 25.772 7.16 L 7.052 7.16 L 7.052 6.44 C 7.052 5.645 7.697 5 8.492 5 Z " fill="rgb(188,186,186)"/><path d=" M 7.052 20.84 L 25.772 20.84 L 25.772 21.56 C 25.772 22.355 25.128 23 24.332 23 L 8.492 23 C 7.697 23 7.052 22.355 7.052 21.56 L 7.052 20.84 Z " fill="rgb(188,186,186)"/><rect x="7.052" y="17.96" width="18.72" height="2.16" transform="matrix(1,0,0,1,0,0)" fill="rgb(188,186,186)"/></g><g><path d="M 40.492 5 L 56.332 5 C 57.127 5 57.772 5.645 57.772 6.44 L 57.772 15.8 C 57.772 16.595 57.127 17.24 56.332 17.24 L 40.492 17.24 C 39.698 17.24 39.052 16.595 39.052 15.8 L 39.052 6.44 C 39.052 5.645 39.698 5 40.492 5 Z" style="stroke:none;fill:#DBDADA;stroke-miterlimit:10;"/><path d="M 40.132 17.96 L 56.692 17.96 C 57.288 17.96 57.772 18.444 57.772 19.04 L 57.772 19.04 C 57.772 19.636 57.288 20.12 56.692 20.12 L 40.132 20.12 C 39.536 20.12 39.052 19.636 39.052 19.04 L 39.052 19.04 C 39.052 18.444 39.536 17.96 40.132 17.96 Z" style="stroke:none;fill:#BCBABA;stroke-miterlimit:10;"/><path d="M 40.132 20.84 L 56.692 20.84 C 57.288 20.84 57.772 21.324 57.772 21.92 L 57.772 21.92 C 57.772 22.516 57.288 23 56.692 23 L 40.132 23 C 39.536 23 39.052 22.516 39.052 21.92 L 39.052 21.92 C 39.052 21.324 39.536 20.84 40.132 20.84 Z" style="stroke:none;fill:#BCBABA;stroke-miterlimit:10;"/><path d=" M 40.492 5 L 56.332 5 C 57.128 5 57.772 5.645 57.772 6.44 L 57.772 7.16 L 39.052 7.16 L 39.052 6.44 C 39.052 5.645 39.697 5 40.492 5 Z " fill="rgb(188,186,186)"/></g><g><path d="M 70.346 7.853 L 89.758 7.853 C 90.472 7.853 91.052 8.433 91.052 9.147 L 91.052 18.853 C 91.052 19.567 90.472 20.147 89.758 20.147 L 70.346 20.147 C 69.632 20.147 69.052 19.567 69.052 18.853 L 69.052 9.147 C 69.052 8.433 69.632 7.853 70.346 7.853 Z" style="stroke:none;fill:#DBDADA;stroke-miterlimit:10;"/><rect x="72.288" y="10.441" width="7.765" height="1.294" transform="matrix(1,0,0,1,0,0)" fill="rgb(188,186,186)"/><rect x="72.288" y="12.382" width="16.824" height="0.647" transform="matrix(1,0,0,1,0,0)" fill="rgb(188,186,186)"/><path d=" M 72.288 13.676 L 89.111 13.676 L 89.111 14.324 L 72.288 14.324 L 72.288 13.676 Z " fill="rgb(188,186,186)"/><path d="M 73.258 16.265 L 77.788 16.265 C 78.323 16.265 78.758 16.7 78.758 17.235 L 78.758 17.235 C 78.758 17.771 78.323 18.206 77.788 18.206 L 73.258 18.206 C 72.723 18.206 72.288 17.771 72.288 17.235 L 72.288 17.235 C 72.288 16.7 72.723 16.265 73.258 16.265 Z" style="stroke:none;fill:#BCBABA;stroke-miterlimit:10;"/></g><g><path d="M 102.346 9.147 L 121.758 9.147 C 122.472 9.147 123.052 9.727 123.052 10.441 L 123.052 17.559 C 123.052 18.273 122.472 18.853 121.758 18.853 L 102.346 18.853 C 101.632 18.853 101.052 18.273 101.052 17.559 L 101.052 10.441 C 101.052 9.727 101.632 9.147 102.346 9.147 Z" style="stroke:none;fill:#DBDADA;stroke-miterlimit:10;"/><path d="M 109.788 14.971 L 114.317 14.971 C 114.853 14.971 115.288 15.405 115.288 15.941 L 115.288 15.941 C 115.288 16.477 114.853 16.912 114.317 16.912 L 109.788 16.912 C 109.252 16.912 108.817 16.477 108.817 15.941 L 108.817 15.941 C 108.817 15.405 109.252 14.971 109.788 14.971 Z" style="stroke:none;fill:#BCBABA;stroke-miterlimit:10;"/><rect x="104.288" y="11.735" width="15.529" height="0.647" transform="matrix(1,0,0,1,0,0)" fill="rgb(188,186,186)"/><rect x="105.582" y="13.029" width="12.941" height="0.647" transform="matrix(1,0,0,1,0,0)" fill="rgb(188,186,186)"/></g><g><path d="M 134.346 9.044 L 153.758 9.044 C 154.472 9.044 155.052 9.624 155.052 10.338 L 155.052 17.456 C 155.052 18.17 154.472 18.75 153.758 18.75 L 134.346 18.75 C 133.632 18.75 133.052 18.17 133.052 17.456 L 133.052 10.338 C 133.052 9.624 133.632 9.044 134.346 9.044 Z" style="stroke:none;fill:#DBDADA;stroke-miterlimit:10;"/><path d="M 136.611 12.279 L 141.141 12.279 C 141.676 12.279 142.111 12.714 142.111 13.25 L 142.111 13.25 C 142.111 13.786 141.676 14.221 141.141 14.221 L 136.611 14.221 C 136.076 14.221 135.641 13.786 135.641 13.25 L 135.641 13.25 C 135.641 12.714 136.076 12.279 136.611 12.279 Z" style="stroke:none;fill:#BCBABA;stroke-miterlimit:10;"/><rect x="144.052" y="14.221" width="9.059" height="0.647" transform="matrix(1,0,0,1,0,0)" fill="rgb(188,186,186)"/><rect x="144.052" y="15.515" width="9.059" height="0.647" transform="matrix(1,0,0,1,0,0)" fill="rgb(188,186,186)"/><rect x="144.052" y="11.632" width="7.765" height="1.294" transform="matrix(1,0,0,1,0,0)" fill="rgb(188,186,186)"/></g><g><path d=" M 187.052 10.338 L 165.052 10.338 L 165.052 18.75 C 165.055 19.464 165.633 20.042 166.346 20.044 L 185.758 20.044 C 186.472 20.042 187.05 19.464 187.052 18.75 L 187.052 10.338 L 187.052 10.338 Z " fill-rule="evenodd" fill="rgb(219,218,218)"/><path d=" M 166.023 7.75 L 169.582 7.75 L 169.582 9.691 L 165.052 9.691 L 165.052 8.721 C 165.052 8.185 165.487 7.75 166.023 7.75 Z " fill="rgb(219,218,218)"/><path d=" M 181.229 7.75 L 186.082 7.75 C 186.618 7.75 187.052 8.185 187.052 8.721 L 187.052 9.691 L 181.229 9.691 L 181.229 7.75 Z " fill="rgb(219,218,218)"/><rect x="170.229" y="7.75" width="4.529" height="1.941" transform="matrix(1,0,0,1,0,0)" fill="rgb(188,186,186)"/><rect x="175.405" y="7.75" width="5.176" height="1.941" transform="matrix(1,0,0,1,0,0)" fill="rgb(219,218,218)"/></g><g><rect x="133.052" y="64.212" width="7.125" height="6.412" transform="matrix(1,0,0,1,0,0)" fill="rgb(219,218,218)"/><rect x="140.889" y="64.212" width="8.55" height="1.425" transform="matrix(1,0,0,1,0,0)" fill="rgb(219,218,218)"/><rect x="140.889" y="66.349" width="14.249" height="0.712" transform="matrix(1,0,0,1,0,0)" fill="rgb(219,218,218)"/><rect x="140.889" y="67.774" width="14.249" height="0.712" transform="matrix(1,0,0,1,0,0)" fill="rgb(219,218,218)"/><rect x="140.889" y="69.199" width="14.249" height="0.712" transform="matrix(1,0,0,1,0,0)" fill="rgb(219,218,218)"/><rect x="140.889" y="70.624" width="14.249" height="0.712" transform="matrix(1,0,0,1,0,0)" fill="rgb(219,218,218)"/><rect x="140.889" y="72.049" width="14.249" height="0.712" transform="matrix(1,0,0,1,0,0)" fill="rgb(219,218,218)"/><rect x="140.889" y="73.474" width="14.249" height="0.712" transform="matrix(1,0,0,1,0,0)" fill="rgb(219,218,218)"/><rect x="140.889" y="74.899" width="14.249" height="0.712" transform="matrix(1,0,0,1,0,0)" fill="rgb(219,218,218)"/></g><g><rect x="106.876" y="73.471" width="4.529" height="4.529" transform="matrix(1,0,0,1,0,0)" fill="rgb(219,218,218)"/><rect x="101.052" y="61.824" width="4.529" height="4.529" transform="matrix(1,0,0,1,0,0)" fill="rgb(219,218,218)"/><rect x="106.876" y="61.824" width="4.529" height="4.529" transform="matrix(1,0,0,1,0,0)" fill="rgb(219,218,218)"/><rect x="112.699" y="61.824" width="4.529" height="4.529" transform="matrix(1,0,0,1,0,0)" fill="rgb(219,218,218)"/><rect x="118.523" y="61.824" width="4.529" height="4.529" transform="matrix(1,0,0,1,0,0)" fill="rgb(219,218,218)"/><rect x="101.052" y="67.647" width="4.529" height="4.529" transform="matrix(1,0,0,1,0,0)" fill="rgb(219,218,218)"/><rect x="106.876" y="67.647" width="4.529" height="4.529" transform="matrix(1,0,0,1,0,0)" fill="rgb(219,218,218)"/><rect x="112.699" y="67.647" width="4.529" height="4.529" transform="matrix(1,0,0,1,0,0)" fill="rgb(219,218,218)"/><rect x="118.523" y="67.647" width="4.529" height="4.529" transform="matrix(1,0,0,1,0,0)" fill="rgb(219,218,218)"/><rect x="101.052" y="73.471" width="4.529" height="4.529" transform="matrix(1,0,0,1,0,0)" fill="rgb(219,218,218)"/><rect x="112.699" y="73.471" width="4.529" height="4.529" transform="matrix(1,0,0,1,0,0)" fill="rgb(219,218,218)"/><rect x="118.523" y="73.471" width="4.529" height="4.529" transform="matrix(1,0,0,1,0,0)" fill="rgb(219,218,218)"/></g><g><rect x="69.052" y="63.412" width="6.471" height="5.824" transform="matrix(1,0,0,1,0,0)" fill="rgb(219,218,218)"/><rect x="76.817" y="63.412" width="6.471" height="5.824" transform="matrix(1,0,0,1,0,0)" fill="rgb(219,218,218)"/><rect x="84.582" y="63.412" width="6.471" height="5.824" transform="matrix(1,0,0,1,0,0)" fill="rgb(219,218,218)"/><rect x="69.052" y="71.176" width="6.471" height="5.824" transform="matrix(1,0,0,1,0,0)" fill="rgb(219,218,218)"/><rect x="76.817" y="71.176" width="6.471" height="5.824" transform="matrix(1,0,0,1,0,0)" fill="rgb(219,218,218)"/><rect x="84.582" y="71.176" width="6.471" height="5.824" transform="matrix(1,0,0,1,0,0)" fill="rgb(219,218,218)"/></g><g/><g><g/></g><g><g/></g><g><g><g><rect x="37.052" y="63.09" width="3.056" height="2.444" transform="matrix(1,0,0,1,0,0)" fill="rgb(219,218,218)"/><rect x="40.719" y="63.09" width="4.889" height="1.222" transform="matrix(1,0,0,1,0,0)" fill="rgb(219,218,218)"/><rect x="40.719" y="64.923" width="6.722" height="0.611" transform="matrix(1,0,0,1,0,0)" fill="rgb(219,218,218)"/><rect x="40.719" y="66.145" width="6.722" height="0.611" transform="matrix(1,0,0,1,0,0)" fill="rgb(219,218,218)"/><rect x="40.719" y="67.368" width="6.722" height="0.611" transform="matrix(1,0,0,1,0,0)" fill="rgb(219,218,218)"/><rect x="40.719" y="68.59" width="6.722" height="0.611" transform="matrix(1,0,0,1,0,0)" fill="rgb(219,218,218)"/><rect x="48.663" y="63.09" width="3.056" height="2.444" transform="matrix(1,0,0,1,0,0)" fill="rgb(219,218,218)"/><rect x="52.33" y="63.09" width="4.889" height="1.222" transform="matrix(1,0,0,1,0,0)" fill="rgb(219,218,218)"/><rect x="52.33" y="64.923" width="6.722" height="0.611" transform="matrix(1,0,0,1,0,0)" fill="rgb(219,218,218)"/><rect x="52.33" y="66.145" width="6.722" height="0.611" transform="matrix(1,0,0,1,0,0)" fill="rgb(219,218,218)"/><rect x="52.33" y="67.368" width="6.722" height="0.611" transform="matrix(1,0,0,1,0,0)" fill="rgb(219,218,218)"/><rect x="52.33" y="68.59" width="6.722" height="0.611" transform="matrix(1,0,0,1,0,0)" fill="rgb(219,218,218)"/><rect x="37.052" y="71.034" width="3.056" height="2.444" transform="matrix(1,0,0,1,0,0)" fill="rgb(219,218,218)"/><rect x="40.719" y="71.034" width="4.889" height="1.222" transform="matrix(1,0,0,1,0,0)" fill="rgb(219,218,218)"/><rect x="40.719" y="72.868" width="6.722" height="0.611" transform="matrix(1,0,0,1,0,0)" fill="rgb(219,218,218)"/><rect x="40.719" y="74.09" width="6.722" height="0.611" transform="matrix(1,0,0,1,0,0)" fill="rgb(219,218,218)"/><rect x="40.719" y="75.312" width="6.722" height="0.611" transform="matrix(1,0,0,1,0,0)" fill="rgb(219,218,218)"/><rect x="40.719" y="76.534" width="6.722" height="0.611" transform="matrix(1,0,0,1,0,0)" fill="rgb(219,218,218)"/><rect x="48.663" y="71.034" width="3.056" height="2.444" transform="matrix(1,0,0,1,0,0)" fill="rgb(219,218,218)"/><rect x="52.33" y="71.034" width="4.889" height="1.222" transform="matrix(1,0,0,1,0,0)" fill="rgb(219,218,218)"/><rect x="52.33" y="72.868" width="6.722" height="0.611" transform="matrix(1,0,0,1,0,0)" fill="rgb(219,218,218)"/><rect x="52.33" y="74.09" width="6.722" height="0.611" transform="matrix(1,0,0,1,0,0)" fill="rgb(219,218,218)"/><rect x="52.33" y="75.312" width="6.722" height="0.611" transform="matrix(1,0,0,1,0,0)" fill="rgb(219,218,218)"/><rect x="52.33" y="76.534" width="6.722" height="0.611" transform="matrix(1,0,0,1,0,0)" fill="rgb(219,218,218)"/></g></g></g><g><rect x="5.052" y="63" width="10.353" height="6.471" transform="matrix(1,0,0,1,0,0)" fill="rgb(219,218,218)"/><rect x="16.699" y="63" width="10.353" height="6.471" transform="matrix(1,0,0,1,0,0)" fill="rgb(219,218,218)"/><rect x="5.052" y="70.765" width="10.353" height="6.471" transform="matrix(1,0,0,1,0,0)" fill="rgb(219,218,218)"/><rect x="16.699" y="70.765" width="10.353" height="6.471" transform="matrix(1,0,0,1,0,0)" fill="rgb(219,218,218)"/></g><g><rect x="173.238" y="67.891" width="6.14" height="1.023" transform="matrix(1,0,0,1,0,0)" fill="rgb(219,218,218)"/><rect x="169.657" y="69.937" width="13.302" height="0.512" transform="matrix(1,0,0,1,0,0)" fill="rgb(219,218,218)"/><rect x="169.657" y="70.96" width="13.302" height="0.512" transform="matrix(1,0,0,1,0,0)" fill="rgb(219,218,218)"/><rect x="169.657" y="71.984" width="13.302" height="0.512" transform="matrix(1,0,0,1,0,0)" fill="rgb(219,218,218)"/><rect x="170.68" y="73.007" width="11.256" height="0.512" transform="matrix(1,0,0,1,0,0)" fill="rgb(219,218,218)"/><rect x="174.262" y="75.053" width="3.07" height="0.512" transform="matrix(1,0,0,1,0,0)" fill="rgb(219,218,218)"/><rect x="173.75" y="76.077" width="4.093" height="0.512" transform="matrix(1,0,0,1,0,0)" fill="rgb(219,218,218)"/><path d=" M 185.006 71.472 L 186.391 70.193 L 185.006 68.914 L 185.671 68.914 L 187.052 70.193 L 185.667 71.472 L 185.006 71.472 Z " fill-rule="evenodd" fill="rgb(219,218,218)"/><path d=" M 167.099 71.472 L 165.714 70.193 L 167.099 68.914 L 166.434 68.914 L 165.052 70.193 L 166.437 71.472 L 167.099 71.472 Z " fill-rule="evenodd" fill="rgb(219,218,218)"/><circle vector-effect="non-scaling-stroke" cx="176.05236220472452" cy="65.07660738714097" r="1.7906976744185954" fill="rgb(219,218,218)"/></g><g><rect x="173.331" y="36" width="6.14" height="1.023" transform="matrix(1,0,0,1,0,0)" fill="rgb(219,218,218)"/><rect x="169.75" y="38.047" width="13.302" height="0.512" transform="matrix(1,0,0,1,0,0)" fill="rgb(219,218,218)"/><rect x="169.75" y="39.07" width="13.302" height="0.512" transform="matrix(1,0,0,1,0,0)" fill="rgb(219,218,218)"/><rect x="169.75" y="40.093" width="13.302" height="0.512" transform="matrix(1,0,0,1,0,0)" fill="rgb(219,218,218)"/><rect x="170.773" y="41.116" width="11.256" height="0.512" transform="matrix(1,0,0,1,0,0)" fill="rgb(219,218,218)"/><rect x="174.866" y="47" width="3.07" height="0.512" transform="matrix(1,0,0,1,0,0)" fill="rgb(219,218,218)"/><rect x="174.355" y="48.023" width="4.093" height="0.512" transform="matrix(1,0,0,1,0,0)" fill="rgb(219,218,218)"/><path d=" M 184.919 43.505 L 186.304 42.226 L 184.919 40.947 L 185.585 40.947 L 186.966 42.226 L 185.58 43.505 L 184.919 43.505 Z " fill-rule="evenodd" fill="rgb(219,218,218)"/><path d=" M 167.012 43.505 L 165.627 42.226 L 167.012 40.947 L 166.347 40.947 L 164.966 42.226 L 166.351 43.505 L 167.012 43.505 Z " fill-rule="evenodd" fill="rgb(219,218,218)"/><circle vector-effect="non-scaling-stroke" cx="176.40119941402673" cy="44.7906976744186" r="1.7906976744185954" fill="rgb(219,218,218)"/></g><g><rect x="19.956" y="92.645" width="7.097" height="6.387" transform="matrix(1,0,0,1,0,0)" fill="rgb(219,218,218)"/><rect x="10.73" y="92.645" width="8.516" height="1.419" transform="matrix(1,0,0,1,0,0)" fill="rgb(219,218,218)"/><rect x="5.052" y="94.774" width="14.194" height="0.71" transform="matrix(1,0,0,1,0,0)" fill="rgb(219,218,218)"/><rect x="5.052" y="96.194" width="14.194" height="0.71" transform="matrix(1,0,0,1,0,0)" fill="rgb(219,218,218)"/><rect x="5.052" y="97.613" width="14.194" height="0.71" transform="matrix(1,0,0,1,0,0)" fill="rgb(219,218,218)"/><rect x="5.052" y="99.032" width="14.194" height="0.71" transform="matrix(1,0,0,1,0,0)" fill="rgb(219,218,218)"/><rect x="5.052" y="100.452" width="14.194" height="0.71" transform="matrix(1,0,0,1,0,0)" fill="rgb(219,218,218)"/><rect x="5.052" y="101.871" width="14.194" height="0.71" transform="matrix(1,0,0,1,0,0)" fill="rgb(219,218,218)"/><rect x="5.052" y="103.29" width="14.194" height="0.71" transform="matrix(1,0,0,1,0,0)" fill="rgb(219,218,218)"/></g><g><rect x="44.639" y="89.978" width="7.586" height="6.828" transform="matrix(1,0,0,1,0,0)" fill="rgb(219,218,218)"/><rect x="42.363" y="98.323" width="12.138" height="1.517" transform="matrix(1,0,0,1,0,0)" fill="rgb(219,218,218)"/><rect x="37.052" y="101.357" width="22" height="0.759" transform="matrix(1,0,0,1,0,0)" fill="rgb(219,218,218)"/><rect x="37.052" y="102.874" width="22" height="0.759" transform="matrix(1,0,0,1,0,0)" fill="rgb(219,218,218)"/><rect x="37.052" y="104.392" width="22" height="0.759" transform="matrix(1,0,0,1,0,0)" fill="rgb(219,218,218)"/><rect x="37.052" y="105.909" width="22" height="0.759" transform="matrix(1,0,0,1,0,0)" fill="rgb(219,218,218)"/></g><g><rect x="71.955" y="89" width="16.195" height="7.361" transform="matrix(1,0,0,1,0,0)" fill="rgb(219,218,218)"/><rect x="74.899" y="98.57" width="9.57" height="1.472" transform="matrix(1,0,0,1,0,0)" fill="rgb(219,218,218)"/><rect x="72.691" y="101.514" width="13.987" height="0.736" transform="matrix(1,0,0,1,0,0)" fill="rgb(219,218,218)"/><rect x="72.691" y="102.987" width="13.987" height="0.736" transform="matrix(1,0,0,1,0,0)" fill="rgb(219,218,218)"/><rect x="72.691" y="104.459" width="13.987" height="0.736" transform="matrix(1,0,0,1,0,0)" fill="rgb(219,218,218)"/><rect x="72.691" y="105.931" width="13.987" height="0.736" transform="matrix(1,0,0,1,0,0)" fill="rgb(219,218,218)"/></g><g><rect x="101.052" y="92.114" width="9.059" height="9.706" transform="matrix(1,0,0,1,0,0)" fill="rgb(219,218,218)"/><rect x="111.405" y="92.114" width="9.706" height="1.294" transform="matrix(1,0,0,1,0,0)" fill="rgb(219,218,218)"/><rect x="111.405" y="94.703" width="11.647" height="0.647" transform="matrix(1,0,0,1,0,0)" fill="rgb(219,218,218)"/><rect x="111.405" y="95.997" width="11.647" height="0.647" transform="matrix(1,0,0,1,0,0)" fill="rgb(219,218,218)"/><rect x="111.405" y="97.291" width="11.647" height="0.647" transform="matrix(1,0,0,1,0,0)" fill="rgb(219,218,218)"/><rect x="111.405" y="98.585" width="11.647" height="0.647" transform="matrix(1,0,0,1,0,0)" fill="rgb(219,218,218)"/><rect x="111.405" y="99.879" width="11.647" height="0.647" transform="matrix(1,0,0,1,0,0)" fill="rgb(219,218,218)"/><rect x="111.405" y="101.173" width="11.647" height="0.647" transform="matrix(1,0,0,1,0,0)" fill="rgb(219,218,218)"/><rect x="111.405" y="102.467" width="11.647" height="0.647" transform="matrix(1,0,0,1,0,0)" fill="rgb(219,218,218)"/><rect x="111.405" y="103.761" width="11.647" height="0.647" transform="matrix(1,0,0,1,0,0)" fill="rgb(219,218,218)"/></g><g><rect x="133.096" y="92.114" width="22" height="12.294" transform="matrix(1,0,0,1,0,0)" fill="rgb(219,218,218)"/><rect x="133.096" y="99.879" width="22" height="4.529" transform="matrix(1,0,0,1,0,0)" fill="rgb(188,186,186)"/><rect x="139.566" y="101.173" width="9.706" height="0.647" transform="matrix(1,0,0,1,0,0)" fill="rgb(219,218,218)"/><rect x="140.213" y="102.467" width="8.412" height="0.647" transform="matrix(1,0,0,1,0,0)" fill="rgb(219,218,218)"/></g><g><rect x="165.139" y="92.114" width="9.023" height="9.668" transform="matrix(1,0,0,1,0,0)" fill="rgb(219,218,218)"/><path d=" M 171.584 96.948 L 167.717 94.693 L 167.717 99.204 L 171.584 96.948 Z " fill-rule="evenodd" fill="rgb(162,162,162)"/><rect x="175.451" y="92.114" width="9.668" height="1.289" transform="matrix(1,0,0,1,0,0)" fill="rgb(219,218,218)"/><rect x="175.451" y="94.693" width="11.601" height="0.645" transform="matrix(1,0,0,1,0,0)" fill="rgb(219,218,218)"/><rect x="175.451" y="95.982" width="11.601" height="0.645" transform="matrix(1,0,0,1,0,0)" fill="rgb(219,218,218)"/><rect x="175.451" y="97.271" width="11.601" height="0.645" transform="matrix(1,0,0,1,0,0)" fill="rgb(219,218,218)"/><rect x="175.451" y="98.56" width="11.601" height="0.645" transform="matrix(1,0,0,1,0,0)" fill="rgb(219,218,218)"/><rect x="175.451" y="99.849" width="11.601" height="0.645" transform="matrix(1,0,0,1,0,0)" fill="rgb(219,218,218)"/><rect x="175.451" y="101.138" width="11.601" height="0.645" transform="matrix(1,0,0,1,0,0)" fill="rgb(219,218,218)"/><rect x="175.451" y="102.427" width="11.601" height="0.645" transform="matrix(1,0,0,1,0,0)" fill="rgb(219,218,218)"/><rect x="175.451" y="103.716" width="11.601" height="0.645" transform="matrix(1,0,0,1,0,0)" fill="rgb(219,218,218)"/></g><g><rect x="5.052" y="120.297" width="9.728" height="1.297" transform="matrix(1,0,0,1,0,0)" fill="rgb(219,218,218)"/><rect x="5.052" y="122.891" width="11.674" height="0.649" transform="matrix(1,0,0,1,0,0)" fill="rgb(219,218,218)"/><rect x="5.052" y="124.188" width="11.674" height="0.649" transform="matrix(1,0,0,1,0,0)" fill="rgb(219,218,218)"/><rect x="5.052" y="125.486" width="11.674" height="0.649" transform="matrix(1,0,0,1,0,0)" fill="rgb(219,218,218)"/><rect x="5.052" y="126.783" width="11.674" height="0.649" transform="matrix(1,0,0,1,0,0)" fill="rgb(219,218,218)"/><rect x="5.052" y="128.08" width="11.674" height="0.649" transform="matrix(1,0,0,1,0,0)" fill="rgb(219,218,218)"/><rect x="5.052" y="129.377" width="11.674" height="0.649" transform="matrix(1,0,0,1,0,0)" fill="rgb(219,218,218)"/><rect x="5.052" y="130.674" width="11.674" height="0.649" transform="matrix(1,0,0,1,0,0)" fill="rgb(219,218,218)"/><rect x="5.052" y="131.971" width="11.674" height="0.649" transform="matrix(1,0,0,1,0,0)" fill="rgb(219,218,218)"/><rect x="18.024" y="120.297" width="9.08" height="9.728" transform="matrix(1,0,0,1,0,0)" fill="rgb(219,218,218)"/></g><g><rect x="38.052" y="118.057" width="20" height="10" transform="matrix(1,0,0,1,0,0)" fill="rgb(219,218,218)"/><rect x="38.052" y="129.596" width="9.231" height="1.538" transform="matrix(1,0,0,1,0,0)" fill="rgb(219,218,218)"/><rect x="38.052" y="131.903" width="20" height="0.769" transform="matrix(1,0,0,1,0,0)" fill="rgb(219,218,218)"/><rect x="38.052" y="133.442" width="20" height="0.769" transform="matrix(1,0,0,1,0,0)" fill="rgb(219,218,218)"/></g><g><rect x="70.052" y="117.288" width="9.231" height="1.538" transform="matrix(1,0,0,1,0,0)" fill="rgb(219,218,218)"/><rect x="70.052" y="119.596" width="20" height="0.769" transform="matrix(1,0,0,1,0,0)" fill="rgb(219,218,218)"/><rect x="70.052" y="121.134" width="20" height="0.769" transform="matrix(1,0,0,1,0,0)" fill="rgb(219,218,218)"/><rect x="70.052" y="122.673" width="20" height="0.769" transform="matrix(1,0,0,1,0,0)" fill="rgb(219,218,218)"/><rect x="70.052" y="124.211" width="20" height="0.769" transform="matrix(1,0,0,1,0,0)" fill="rgb(219,218,218)"/><rect x="70.052" y="127.288" width="9.231" height="1.538" transform="matrix(1,0,0,1,0,0)" fill="rgb(219,218,218)"/><rect x="70.052" y="129.596" width="20" height="0.769" transform="matrix(1,0,0,1,0,0)" fill="rgb(219,218,218)"/><rect x="70.052" y="131.134" width="20" height="0.769" transform="matrix(1,0,0,1,0,0)" fill="rgb(219,218,218)"/><rect x="70.052" y="132.673" width="20" height="0.769" transform="matrix(1,0,0,1,0,0)" fill="rgb(219,218,218)"/><rect x="70.052" y="134.211" width="20" height="0.769" transform="matrix(1,0,0,1,0,0)" fill="rgb(219,218,218)"/></g><g><rect x="102" y="117.638" width="4.444" height="3.704" transform="matrix(1,0,0,1,0,0)" fill="rgb(219,218,218)"/><rect x="107.185" y="117.638" width="8.889" height="1.481" transform="matrix(1,0,0,1,0,0)" fill="rgb(219,218,218)"/><rect x="107.185" y="119.861" width="14.815" height="0.741" transform="matrix(1,0,0,1,0,0)" fill="rgb(219,218,218)"/><rect x="107.185" y="121.342" width="14.815" height="0.741" transform="matrix(1,0,0,1,0,0)" fill="rgb(219,218,218)"/><rect x="107.185" y="122.824" width="14.815" height="0.741" transform="matrix(1,0,0,1,0,0)" fill="rgb(219,218,218)"/><rect x="107.185" y="124.305" width="14.815" height="0.741" transform="matrix(1,0,0,1,0,0)" fill="rgb(219,218,218)"/><rect x="102" y="127.268" width="4.444" height="3.704" transform="matrix(1,0,0,1,0,0)" fill="rgb(219,218,218)"/><rect x="107.185" y="127.268" width="8.889" height="1.481" transform="matrix(1,0,0,1,0,0)" fill="rgb(219,218,218)"/><rect x="107.185" y="129.49" width="14.815" height="0.741" transform="matrix(1,0,0,1,0,0)" fill="rgb(219,218,218)"/><rect x="107.185" y="130.972" width="14.815" height="0.741" transform="matrix(1,0,0,1,0,0)" fill="rgb(219,218,218)"/><rect x="107.185" y="132.453" width="14.815" height="0.741" transform="matrix(1,0,0,1,0,0)" fill="rgb(219,218,218)"/><rect x="107.185" y="133.935" width="14.815" height="0.741" transform="matrix(1,0,0,1,0,0)" fill="rgb(219,218,218)"/></g><g><rect x="133.135" y="124" width="6.67" height="3.812" transform="matrix(1,0,0,1,0,0)" fill="rgb(219,218,218)"/><rect x="140.759" y="124" width="6.67" height="3.812" transform="matrix(1,0,0,1,0,0)" fill="rgb(219,218,218)"/><rect x="148.382" y="124" width="6.67" height="3.812" transform="matrix(1,0,0,1,0,0)" fill="rgb(219,218,218)"/></g><g><rect x="165.052" y="119.461" width="21.914" height="12.89" transform="matrix(1,0,0,1,0,0)" fill="rgb(219,218,218)"/><path d=" M 178.587 124.295 L 174.72 122.039 L 174.72 126.55 L 178.587 124.295 Z " fill-rule="evenodd" fill="rgb(162,162,162)"/><rect x="165.052" y="127.839" width="21.914" height="4.512" transform="matrix(1,0,0,1,0,0)" fill="rgb(188,186,186)"/><rect x="171.498" y="129.128" width="9.668" height="0.645" transform="matrix(1,0,0,1,0,0)" fill="rgb(219,218,218)"/><rect x="172.142" y="130.417" width="8.379" height="0.645" transform="matrix(1,0,0,1,0,0)" fill="rgb(219,218,218)"/></g><g><rect x="5.052" y="152.406" width="5.188" height="2.594" transform="matrix(1,0,0,1,0,0)" fill="rgb(219,218,218)"/><rect x="10.889" y="152.406" width="4.54" height="2.594" transform="matrix(1,0,0,1,0,0)" fill="rgb(219,218,218)"/><rect x="16.078" y="152.406" width="4.54" height="2.594" transform="matrix(1,0,0,1,0,0)" fill="rgb(219,218,218)"/><rect x="21.266" y="152.406" width="5.837" height="2.594" transform="matrix(1,0,0,1,0,0)" fill="rgb(219,218,218)"/></g><g><rect x="42.32" y="145.192" width="12.184" height="3.749" transform="matrix(1,0,0,1,0,0)" fill="rgb(219,218,218)"/><rect x="42.32" y="149.879" width="12.184" height="3.749" transform="matrix(1,0,0,1,0,0)" fill="rgb(219,218,218)"/><rect x="42.32" y="154.565" width="12.184" height="3.749" transform="matrix(1,0,0,1,0,0)" fill="rgb(219,218,218)"/><rect x="42.32" y="159.251" width="12.184" height="3.749" transform="matrix(1,0,0,1,0,0)" fill="rgb(219,218,218)"/></g><g><rect x="69.052" y="150" width="10.924" height="6.9" transform="matrix(1,0,0,1,0,0)" fill="rgb(219,218,218)"/><rect x="82.276" y="151.15" width="8.624" height="0.575" transform="matrix(1,0,0,1,0,0)" fill="rgb(219,218,218)"/><rect x="82.276" y="152.3" width="8.624" height="0.575" transform="matrix(1,0,0,1,0,0)" fill="rgb(219,218,218)"/><rect x="82.276" y="153.45" width="8.624" height="0.575" transform="matrix(1,0,0,1,0,0)" fill="rgb(219,218,218)"/><rect x="82.851" y="154.6" width="7.474" height="0.575" transform="matrix(1,0,0,1,0,0)" fill="rgb(219,218,218)"/></g><g><rect x="101" y="147.934" width="22.052" height="12.323" transform="matrix(1,0,0,1,0,0)" fill="rgb(219,218,218)"/><rect x="101" y="153.772" width="12.323" height="3.243" transform="matrix(1,0,0,1,0,0)" fill="rgb(188,186,186)"/></g><g><rect x="133.135" y="146.934" width="21.512" height="9.929" transform="matrix(1,0,0,1,0,0)" fill="rgb(219,218,218)"/><rect x="138.1" y="158.518" width="12.411" height="0.827" transform="matrix(1,0,0,1,0,0)" fill="rgb(219,218,218)"/><rect x="138.927" y="160.173" width="10.756" height="0.827" transform="matrix(1,0,0,1,0,0)" fill="rgb(219,218,218)"/></g><g><rect x="165.052" y="148.012" width="9.668" height="1.289" transform="matrix(1,0,0,1,0,0)" fill="rgb(219,218,218)"/><rect x="165.052" y="150.59" width="11.601" height="0.645" transform="matrix(1,0,0,1,0,0)" fill="rgb(219,218,218)"/><rect x="165.052" y="151.879" width="11.601" height="0.645" transform="matrix(1,0,0,1,0,0)" fill="rgb(219,218,218)"/><rect x="165.052" y="153.168" width="11.601" height="0.645" transform="matrix(1,0,0,1,0,0)" fill="rgb(219,218,218)"/><rect x="165.052" y="154.457" width="11.601" height="0.645" transform="matrix(1,0,0,1,0,0)" fill="rgb(219,218,218)"/><rect x="165.052" y="155.746" width="11.601" height="0.645" transform="matrix(1,0,0,1,0,0)" fill="rgb(219,218,218)"/><rect x="165.052" y="157.035" width="11.601" height="0.645" transform="matrix(1,0,0,1,0,0)" fill="rgb(219,218,218)"/><rect x="165.052" y="158.324" width="11.601" height="0.645" transform="matrix(1,0,0,1,0,0)" fill="rgb(219,218,218)"/><rect x="165.052" y="159.613" width="11.601" height="0.645" transform="matrix(1,0,0,1,0,0)" fill="rgb(219,218,218)"/><rect x="177.943" y="148.012" width="9.023" height="9.668" transform="matrix(1,0,0,1,0,0)" fill="rgb(219,218,218)"/><path d=" M 183.743 152.846 L 180.521 150.59 L 180.521 155.102 L 183.743 152.846 Z " fill-rule="evenodd" fill="rgb(162,162,162)"/></g><g><rect x="5.052" y="174.615" width="22" height="14.385" transform="matrix(1,0,0,1,0,0)" fill="rgb(219,218,218)"/><rect x="5.052" y="184.769" width="22" height="4.231" transform="matrix(1,0,0,1,0,0)" fill="rgb(188,186,186)"/><rect x="10.129" y="186.462" width="12.692" height="0.846" transform="matrix(1,0,0,1,0,0)" fill="rgb(219,218,218)"/></g><g><rect x="37.052" y="181" width="22" height="2.308" transform="matrix(1,0,0,1,0,0)" fill="rgb(219,218,218)"/></g><g><rect x="165.052" y="173" width="22" height="11" transform="matrix(1,0,0,1,0,0)" fill="rgb(219,218,218)"/><path d=" M 178.591 178.5 L 173.514 175.538 L 173.514 181.462 L 178.591 178.5 Z " fill-rule="evenodd" fill="rgb(162,162,162)"/><rect x="165.052" y="185.692" width="10.154" height="1.692" transform="matrix(1,0,0,1,0,0)" fill="rgb(219,218,218)"/><rect x="165.052" y="188.231" width="22" height="0.846" transform="matrix(1,0,0,1,0,0)" fill="rgb(219,218,218)"/><rect x="165.052" y="189.923" width="22" height="0.846" transform="matrix(1,0,0,1,0,0)" fill="rgb(219,218,218)"/></g><g><rect x="138.908" y="176.019" width="16.145" height="12.27" transform="matrix(1,0,0,1,0,0)" fill="rgb(219,218,218)"/><rect x="139.553" y="176.665" width="14.853" height="10.978" transform="matrix(1,0,0,1,0,0)" fill="rgb(255,255,255)"/><rect x="133.096" y="177.956" width="5.812" height="1.937" transform="matrix(1,0,0,1,0,0)" fill="rgb(188,186,186)"/><rect x="133.096" y="180.539" width="5.812" height="1.937" transform="matrix(1,0,0,1,0,0)" fill="rgb(219,218,218)"/><rect x="133.096" y="183.123" width="5.812" height="1.937" transform="matrix(1,0,0,1,0,0)" fill="rgb(219,218,218)"/></g><g><path d=" M 75.523 178.088 L 91.052 178.088 L 91.052 188.441 L 69.052 188.441 L 69.052 176.147 L 75.523 176.147 L 75.523 178.088 Z " fill-rule="evenodd" fill="rgb(219,218,218)"/><rect x="82.641" y="176.147" width="4.529" height="1.941" transform="matrix(1,0,0,1,0,0)" fill="rgb(219,218,218)"/><rect x="76.817" y="176.147" width="4.529" height="1.941" transform="matrix(1,0,0,1,0,0)" fill="rgb(219,218,218)"/><path d=" M 74.876 178.735 L 90.405 178.735 L 90.405 187.794 L 69.699 187.794 L 69.699 176.794 L 74.876 176.794 L 74.876 178.735 Z " fill-rule="evenodd" fill="rgb(255,255,255)"/></g><g><path d=" M 123 178.088 L 123 178.735 L 106.824 178.735 L 106.824 176.794 L 101.647 176.794 L 101.647 178.735 L 101 178.735 L 101 176.147 L 107.471 176.147 L 107.471 178.088 L 123 178.088 Z " fill-rule="evenodd" fill="rgb(219,218,218)"/><rect x="108.765" y="176.147" width="4.529" height="1.941" transform="matrix(1,0,0,1,0,0)" fill="rgb(219,218,218)"/><rect x="114.588" y="176.147" width="4.529" height="1.941" transform="matrix(1,0,0,1,0,0)" fill="rgb(219,218,218)"/></g><path d=" M 198.811 16.386 L 197.052 16.386 L 197.052 11.512 L 198.731 11.512 L 198.731 11.512 Q 199.3 11.512 199.599 11.582 L 199.599 11.582 L 199.599 11.582 Q 200.018 11.678 200.314 11.931 L 200.314 11.931 L 200.314 11.931 Q 200.7 12.257 200.891 12.764 L 200.891 12.764 L 200.891 12.764 Q 201.082 13.271 201.082 13.922 L 201.082 13.922 L 201.082 13.922 Q 201.082 14.478 200.952 14.906 L 200.952 14.906 L 200.952 14.906 Q 200.823 15.335 200.62 15.616 L 200.62 15.616 L 200.62 15.616 Q 200.417 15.897 200.176 16.059 L 200.176 16.059 L 200.176 16.059 Q 199.935 16.22 199.594 16.303 L 199.594 16.303 L 199.594 16.303 Q 199.253 16.386 198.811 16.386 L 198.811 16.386 Z  M 197.697 12.087 L 197.697 15.811 L 198.738 15.811 L 198.738 15.811 Q 199.22 15.811 199.494 15.721 L 199.494 15.721 L 199.494 15.721 Q 199.769 15.631 199.932 15.468 L 199.932 15.468 L 199.932 15.468 Q 200.161 15.239 200.289 14.852 L 200.289 14.852 L 200.289 14.852 Q 200.417 14.464 200.417 13.912 L 200.417 13.912 L 200.417 13.912 Q 200.417 13.148 200.166 12.737 L 200.166 12.737 L 200.166 12.737 Q 199.915 12.326 199.556 12.187 L 199.556 12.187 L 199.556 12.187 Q 199.297 12.087 198.721 12.087 L 198.721 12.087 L 197.697 12.087 Z  M 204.311 15.249 L 204.311 15.249 L 204.929 15.325 L 204.929 15.325 Q 204.783 15.867 204.387 16.167 L 204.387 16.167 L 204.387 16.167 Q 203.991 16.466 203.376 16.466 L 203.376 16.466 L 203.376 16.466 Q 202.602 16.466 202.148 15.989 L 202.148 15.989 L 202.148 15.989 Q 201.694 15.512 201.694 14.65 L 201.694 14.65 L 201.694 14.65 Q 201.694 13.759 202.153 13.267 L 202.153 13.267 L 202.153 13.267 Q 202.612 12.775 203.343 12.775 L 203.343 12.775 L 203.343 12.775 Q 204.051 12.775 204.5 13.257 L 204.5 13.257 L 204.5 13.257 Q 204.949 13.739 204.949 14.614 L 204.949 14.614 L 204.949 14.614 Q 204.949 14.667 204.946 14.773 L 204.946 14.773 L 202.312 14.773 L 202.312 14.773 Q 202.346 15.355 202.642 15.665 L 202.642 15.665 L 202.642 15.665 Q 202.937 15.974 203.38 15.974 L 203.38 15.974 L 203.38 15.974 Q 203.709 15.974 203.942 15.801 L 203.942 15.801 L 203.942 15.801 Q 204.174 15.628 204.311 15.249 Z  M 202.346 14.281 L 202.346 14.281 L 204.317 14.281 L 204.317 14.281 Q 204.277 13.836 204.091 13.613 L 204.091 13.613 L 204.091 13.613 Q 203.805 13.267 203.35 13.267 L 203.35 13.267 L 203.35 13.267 Q 202.937 13.267 202.656 13.543 L 202.656 13.543 L 202.656 13.543 Q 202.376 13.819 202.346 14.281 Z  M 206.419 16.386 L 205.823 16.386 L 205.823 13.32 L 205.295 13.32 L 205.295 12.855 L 205.823 12.855 L 205.823 12.479 L 205.823 12.479 Q 205.823 12.124 205.887 11.951 L 205.887 11.951 L 205.887 11.951 Q 205.973 11.718 206.191 11.573 L 206.191 11.573 L 206.191 11.573 Q 206.409 11.429 206.801 11.429 L 206.801 11.429 L 206.801 11.429 Q 207.054 11.429 207.36 11.488 L 207.36 11.488 L 207.27 12.01 L 207.27 12.01 Q 207.084 11.977 206.917 11.977 L 206.917 11.977 L 206.917 11.977 Q 206.645 11.977 206.532 12.094 L 206.532 12.094 L 206.532 12.094 Q 206.419 12.21 206.419 12.529 L 206.419 12.529 L 206.419 12.855 L 207.107 12.855 L 207.107 13.32 L 206.419 13.32 L 206.419 16.386 Z  M 209.876 15.95 L 209.876 15.95 L 209.876 15.95 Q 209.544 16.233 209.236 16.349 L 209.236 16.349 L 209.236 16.349 Q 208.929 16.466 208.576 16.466 L 208.576 16.466 L 208.576 16.466 Q 207.995 16.466 207.682 16.182 L 207.682 16.182 L 207.682 16.182 Q 207.369 15.897 207.369 15.455 L 207.369 15.455 L 207.369 15.455 Q 207.369 15.196 207.488 14.981 L 207.488 14.981 L 207.488 14.981 Q 207.606 14.767 207.797 14.637 L 207.797 14.637 L 207.797 14.637 Q 207.988 14.507 208.227 14.441 L 208.227 14.441 L 208.227 14.441 Q 208.404 14.394 208.759 14.351 L 208.759 14.351 L 208.759 14.351 Q 209.484 14.265 209.827 14.145 L 209.827 14.145 L 209.827 14.145 Q 209.83 14.022 209.83 13.989 L 209.83 13.989 L 209.83 13.989 Q 209.83 13.623 209.66 13.473 L 209.66 13.473 L 209.66 13.473 Q 209.431 13.271 208.979 13.271 L 208.979 13.271 L 208.979 13.271 Q 208.556 13.271 208.355 13.419 L 208.355 13.419 L 208.355 13.419 Q 208.154 13.567 208.058 13.942 L 208.058 13.942 L 207.473 13.862 L 207.473 13.862 Q 207.552 13.487 207.735 13.256 L 207.735 13.256 L 207.735 13.256 Q 207.918 13.025 208.264 12.9 L 208.264 12.9 L 208.264 12.9 Q 208.61 12.775 209.065 12.775 L 209.065 12.775 L 209.065 12.775 Q 209.517 12.775 209.8 12.882 L 209.8 12.882 L 209.8 12.882 Q 210.083 12.988 210.216 13.149 L 210.216 13.149 L 210.216 13.149 Q 210.349 13.311 210.402 13.557 L 210.402 13.557 L 210.402 13.557 Q 210.432 13.709 210.432 14.108 L 210.432 14.108 L 210.432 14.906 L 210.432 14.906 Q 210.432 15.741 210.47 15.962 L 210.47 15.962 L 210.47 15.962 Q 210.508 16.183 210.621 16.386 L 210.621 16.386 L 209.996 16.386 L 209.996 16.386 Q 209.903 16.2 209.876 15.95 Z  M 209.827 14.833 L 209.827 14.614 L 209.827 14.614 Q 209.501 14.747 208.849 14.84 L 208.849 14.84 L 208.849 14.84 Q 208.48 14.893 208.327 14.96 L 208.327 14.96 L 208.327 14.96 Q 208.174 15.026 208.091 15.154 L 208.091 15.154 L 208.091 15.154 Q 208.008 15.282 208.008 15.438 L 208.008 15.438 L 208.008 15.438 Q 208.008 15.678 208.189 15.837 L 208.189 15.837 L 208.189 15.837 Q 208.37 15.997 208.719 15.997 L 208.719 15.997 L 208.719 15.997 Q 209.065 15.997 209.335 15.846 L 209.335 15.846 L 209.335 15.846 Q 209.604 15.694 209.73 15.432 L 209.73 15.432 L 209.73 15.432 Q 209.827 15.229 209.827 14.833 L 209.827 14.833 Z  M 214.209 16.386 L 213.673 16.386 L 213.673 15.867 L 213.673 15.867 Q 213.261 16.466 212.553 16.466 L 212.553 16.466 L 212.553 16.466 Q 212.24 16.466 211.969 16.346 L 211.969 16.346 L 211.969 16.346 Q 211.698 16.226 211.567 16.045 L 211.567 16.045 L 211.567 16.045 Q 211.436 15.864 211.383 15.601 L 211.383 15.601 L 211.383 15.601 Q 211.346 15.425 211.346 15.043 L 211.346 15.043 L 211.346 12.855 L 211.945 12.855 L 211.945 14.813 L 211.945 14.813 Q 211.945 15.282 211.981 15.445 L 211.981 15.445 L 211.981 15.445 Q 212.038 15.681 212.221 15.816 L 212.221 15.816 L 212.221 15.816 Q 212.403 15.95 212.673 15.95 L 212.673 15.95 L 212.673 15.95 Q 212.942 15.95 213.178 15.812 L 213.178 15.812 L 213.178 15.812 Q 213.414 15.674 213.512 15.437 L 213.512 15.437 L 213.512 15.437 Q 213.61 15.199 213.61 14.747 L 213.61 14.747 L 213.61 12.855 L 214.209 12.855 L 214.209 16.386 Z  M 215.732 16.386 L 215.133 16.386 L 215.133 11.512 L 215.732 11.512 L 215.732 16.386 Z  M 217.966 15.851 L 217.966 15.851 L 218.052 16.379 L 218.052 16.379 Q 217.8 16.433 217.6 16.433 L 217.6 16.433 L 217.6 16.433 Q 217.274 16.433 217.095 16.329 L 217.095 16.329 L 217.095 16.329 Q 216.915 16.226 216.842 16.059 L 216.842 16.059 L 216.842 16.059 Q 216.769 15.891 216.769 15.352 L 216.769 15.352 L 216.769 13.32 L 216.33 13.32 L 216.33 12.855 L 216.769 12.855 L 216.769 11.981 L 217.364 11.621 L 217.364 12.855 L 217.966 12.855 L 217.966 13.32 L 217.364 13.32 L 217.364 15.385 L 217.364 15.385 Q 217.364 15.641 217.396 15.714 L 217.396 15.714 L 217.396 15.714 Q 217.427 15.788 217.499 15.831 L 217.499 15.831 L 217.499 15.831 Q 217.57 15.874 217.703 15.874 L 217.703 15.874 L 217.703 15.874 Q 217.803 15.874 217.966 15.851 Z " fill="rgb(190,187,187)"/><g><path d=" M 6.346 37 L 25.758 37 C 26.473 37 27.052 37.579 27.052 38.294 L 27.052 45.412 C 27.052 46.127 26.473 46.706 25.758 46.706 L 6.346 46.706 C 5.631 46.706 5.052 46.127 5.052 45.412 L 5.052 38.294 C 5.052 37.579 5.631 37 6.346 37 Z " fill-rule="evenodd" fill="rgb(219,218,218)"/><path d=" M 6.994 38.941 L 14.111 38.941 L 14.111 40.235 L 6.994 40.235 L 6.994 38.941 Z " fill-rule="evenodd" fill="rgb(191,188,188)"/><path d=" M 6.994 41.529 L 15.405 41.529 L 15.405 42.176 L 6.994 42.176 L 6.994 41.529 Z " fill-rule="evenodd" fill="rgb(191,188,188)"/><path d=" M 6.994 42.824 L 15.405 42.824 L 15.405 43.471 L 6.994 43.471 L 6.994 42.824 Z " fill-rule="evenodd" fill="rgb(191,188,188)"/><path d=" M 17.994 40.235 L 25.111 40.235 L 25.111 42.176 L 17.994 42.176 L 17.994 40.235 Z " fill-rule="evenodd" fill="rgb(191,188,188)"/></g><g><path d=" M 37.052 41 L 42.876 41 L 42.876 42.941 L 37.052 42.941 L 37.052 41 Z " fill-rule="evenodd" fill="rgb(220,219,219)"/><path d=" M 45.464 41 L 51.288 41 L 51.288 42.941 L 45.464 42.941 L 45.464 41 Z " fill-rule="evenodd" fill="rgb(220,219,219)"/><path d=" M 53.229 41 L 59.052 41 L 59.052 42.941 L 53.229 42.941 L 53.229 41 Z " fill-rule="evenodd" fill="rgb(220,219,219)"/></g><g><path d=" M 69.052 40.86 L 71.039 40.86 L 71.039 42.846 L 69.052 42.846 L 69.052 40.86 Z " fill-rule="evenodd" fill="rgb(220,219,219)"/><path d=" M 73.025 40.86 L 75.011 40.86 L 75.011 42.846 L 73.025 42.846 L 73.025 40.86 Z " fill-rule="evenodd" fill="rgb(220,219,219)"/><path d=" M 76.997 40.86 L 78.983 40.86 L 78.983 42.846 L 76.997 42.846 L 76.997 40.86 Z " fill-rule="evenodd" fill="rgb(220,219,219)"/><path d=" M 80.97 40.86 L 82.956 40.86 L 82.956 42.846 L 80.97 42.846 L 80.97 40.86 Z " fill-rule="evenodd" fill="rgb(220,219,219)"/><path d=" M 84.942 40.86 L 86.928 40.86 L 86.928 42.846 L 84.942 42.846 L 84.942 40.86 Z " fill-rule="evenodd" fill="rgb(220,219,219)"/><path d=" M 88.915 40.86 L 90.901 40.86 L 90.901 42.846 L 88.915 42.846 L 88.915 40.86 Z " fill-rule="evenodd" fill="rgb(220,219,219)"/></g><g><path d=" M 101 40.733 L 123.052 40.733 L 123.052 41.382 L 101 41.382 L 101 40.733 Z " fill-rule="evenodd" fill="rgb(220,219,219)"/><path d=" M 101 42.03 L 123.052 42.03 L 123.052 42.679 L 101 42.679 L 101 42.03 Z " fill-rule="evenodd" fill="rgb(220,219,219)"/></g><path d=" M 133.135 36.491 L 155.052 36.491 L 155.052 47.45 L 133.135 47.45 L 133.135 36.491 Z " fill-rule="evenodd" fill="rgb(220,219,219)"/><g><path d=" M 198.721 33.348 L 217.321 33.348 C 217.984 33.348 218.521 33.885 218.521 34.548 L 218.521 47.148 C 218.521 47.811 217.984 48.348 217.321 48.348 L 198.721 48.348 C 198.058 48.348 197.521 47.811 197.521 47.148 L 197.521 34.548 C 197.521 33.885 198.058 33.348 198.721 33.348 Z " fill-rule="evenodd" fill="rgb(237,237,237)"/><path d=" M 199.921 35.748 L 216.721 35.748 L 216.721 36.348 L 199.921 36.348 L 199.921 35.748 Z " fill-rule="evenodd" fill="rgb(192,189,189)"/><path d=" M 199.921 36.948 L 214.921 36.948 L 214.921 37.548 L 199.921 37.548 L 199.921 36.948 Z " fill-rule="evenodd" fill="rgb(192,189,189)"/><path d=" M 199.921 38.148 L 214.921 38.148 L 214.921 38.748 L 199.921 38.748 L 199.921 38.148 Z " fill-rule="evenodd" fill="rgb(192,189,189)"/><path d=" M 199.921 42.948 L 211.921 42.948 L 211.921 43.548 L 199.921 43.548 L 199.921 42.948 Z " fill-rule="evenodd" fill="rgb(192,189,189)"/><path d=" M 199.921 44.148 L 213.121 44.148 L 213.121 44.748 L 199.921 44.748 L 199.921 44.148 Z " fill-rule="evenodd" fill="rgb(192,189,189)"/><path d=" M 202.321 45.948 C 203.646 45.948 204.721 47.022 204.721 48.348 C 204.721 49.673 203.646 50.748 202.321 50.748 C 200.995 50.748 199.921 49.673 199.921 48.348 C 199.921 47.022 200.995 45.948 202.321 45.948 Z " fill-rule="evenodd" fill="rgb(192,189,189)"/></g><g><rect x="197.052" y="65" width="21.468" height="10.161" transform="matrix(1,0,0,1,0,0)" fill="rgb(235,235,235)"/><path d=" M 199.269 67.126 L 216.469 67.126 L 216.469 73.109 L 199.269 73.109 L 199.269 67.126 Z " fill-rule="evenodd" fill="rgb(220,219,219)"/><path d=" M 197.218 67.126 L 199.269 67.126 L 199.269 73.109 L 197.218 73.109 L 197.218 67.126 Z " fill-rule="evenodd" fill="rgb(194,193,193)"/><path d=" M 216.469 65.075 L 216.469 67.126 L 199.269 67.126 L 199.269 65.075 L 216.469 65.075 Z " fill-rule="evenodd" fill="rgb(194,193,193)"/><path d=" M 216.469 73.109 L 216.469 73.688 L 216.469 75.161 L 199.269 75.161 L 199.269 73.109 L 216.469 73.109 Z " fill-rule="evenodd" fill="rgb(194,193,193)"/><path d=" M 216.469 67.052 L 218.521 67.052 L 218.521 73.109 L 216.469 73.109 L 216.469 67.052 Z " fill-rule="evenodd" fill="rgb(194,193,193)"/></g><g><path d=" M 197.052 179.308 L 214.244 179.308 L 214.244 190.769 L 197.052 190.769 L 197.052 179.308 Z " fill-rule="evenodd" fill="rgb(233,231,231)"/><path d=" M 214.244 182.747 L 214.244 183.32 L 214.244 184.466 L 214.244 185.612 L 214.244 186.758 L 214.244 190.769 L 213.671 190.769 L 213.671 179.308 L 197.052 179.308 L 197.052 178.735 L 214.244 178.735 L 214.244 179.881 L 214.244 182.747 Z " fill-rule="evenodd" fill="rgb(188,187,187)"/></g><path d=" M 204.535 155.713 L 204.535 155.713 L 205.847 155.506 L 205.847 155.506 Q 205.958 156.295 206.463 156.716 L 206.463 156.716 L 206.463 156.716 Q 206.968 157.136 207.875 157.136 L 207.875 157.136 L 207.875 157.136 Q 208.789 157.136 209.232 156.764 L 209.232 156.764 L 209.232 156.764 Q 209.674 156.391 209.674 155.89 L 209.674 155.89 L 209.674 155.89 Q 209.674 155.44 209.283 155.182 L 209.283 155.182 L 209.283 155.182 Q 209.011 155.005 207.927 154.732 L 207.927 154.732 L 207.927 154.732 Q 206.467 154.364 205.903 154.094 L 205.903 154.094 L 205.903 154.094 Q 205.339 153.825 205.047 153.35 L 205.047 153.35 L 205.047 153.35 Q 204.756 152.874 204.756 152.299 L 204.756 152.299 L 204.756 152.299 Q 204.756 151.775 204.996 151.329 L 204.996 151.329 L 204.996 151.329 Q 205.235 150.883 205.648 150.588 L 205.648 150.588 L 205.648 150.588 Q 205.958 150.36 206.493 150.201 L 206.493 150.201 L 206.493 150.201 Q 207.027 150.043 207.639 150.043 L 207.639 150.043 L 207.639 150.043 Q 208.561 150.043 209.258 150.308 L 209.258 150.308 L 209.258 150.308 Q 209.954 150.574 210.286 151.027 L 210.286 151.027 L 210.286 151.027 Q 210.618 151.48 210.743 152.24 L 210.743 152.24 L 209.446 152.417 L 209.446 152.417 Q 209.357 151.812 208.933 151.473 L 208.933 151.473 L 208.933 151.473 Q 208.509 151.134 207.735 151.134 L 207.735 151.134 L 207.735 151.134 Q 206.821 151.134 206.43 151.436 L 206.43 151.436 L 206.43 151.436 Q 206.039 151.739 206.039 152.144 L 206.039 152.144 L 206.039 152.144 Q 206.039 152.402 206.201 152.609 L 206.201 152.609 L 206.201 152.609 Q 206.363 152.822 206.71 152.963 L 206.71 152.963 L 206.71 152.963 Q 206.909 153.036 207.882 153.302 L 207.882 153.302 L 207.882 153.302 Q 209.291 153.678 209.847 153.917 L 209.847 153.917 L 209.847 153.917 Q 210.404 154.157 210.721 154.614 L 210.721 154.614 L 210.721 154.614 Q 211.038 155.071 211.038 155.75 L 211.038 155.75 L 211.038 155.75 Q 211.038 156.413 210.651 157 L 210.651 157 L 210.651 157 Q 210.264 157.586 209.534 157.906 L 209.534 157.906 L 209.534 157.906 Q 208.804 158.227 207.882 158.227 L 207.882 158.227 L 207.882 158.227 Q 206.356 158.227 205.556 157.593 L 205.556 157.593 L 205.556 157.593 Q 204.756 156.959 204.535 155.713 Z " fill="rgb(190,187,187)"/><path d=" M 202.824 130.516 L 201.359 130.516 L 204.925 125.711 L 201.78 121.296 L 203.233 121.296 L 204.906 123.66 L 204.906 123.66 Q 205.428 124.396 205.648 124.793 L 205.648 124.793 L 205.648 124.793 Q 205.957 124.289 206.378 123.742 L 206.378 123.742 L 208.233 121.296 L 209.561 121.296 L 206.321 125.642 L 209.812 130.516 L 208.303 130.516 L 205.982 127.227 L 205.982 127.227 Q 205.787 126.944 205.579 126.61 L 205.579 126.61 L 205.579 126.61 Q 205.271 127.113 205.139 127.302 L 205.139 127.302 L 202.824 130.516 Z  M 216.599 130.516 L 210.837 130.516 L 210.837 121.296 L 212.057 121.296 L 212.057 129.428 L 216.599 129.428 L 216.599 130.516 Z " fill="rgb(190,187,187)"/><path d=" M 211.859 103.669 L 204.567 103.669 L 204.567 91.998 L 206.111 91.998 L 206.111 102.292 L 211.859 102.292 L 211.859 103.669 Z " fill="rgb(190,187,187)"/><g><mask id="_mask_sbVzXA7mvzlP89VXijPHHqF2BqKN8t4S" x="-200%" y="-200%" width="400%" height="400%"><rect x="-200%" y="-200%" width="400%" height="400%" style="fill:white;"/><path d=" M 198.052 234.426 L 206.803 234.426 L 206.803 237 L 198.052 237 L 198.052 234.426 Z " fill-rule="evenodd" fill="black" stroke="none"/></mask><path d=" M 198.052 234.426 L 206.803 234.426 L 206.803 237 L 198.052 237 L 198.052 234.426 Z " fill-rule="evenodd" fill="rgb(255,255,255)" mask="url(#_mask_sbVzXA7mvzlP89VXijPHHqF2BqKN8t4S)" vector-effect="non-scaling-stroke" stroke-width="2" stroke="rgb(220,219,219)" stroke-opacity="100" stroke-linejoin="miter" stroke-linecap="butt" stroke-miterlimit="4"/><mask id="_mask_UpLxYUiE1sUFTNTaZxRLV3LrdZ0oJKi4" x="-200%" y="-200%" width="400%" height="400%"><rect x="-200%" y="-200%" width="400%" height="400%" style="fill:white;"/><path d=" M 209.301 234.426 L 218.052 234.426 L 218.052 237 L 209.301 237 L 209.301 234.426 Z " fill-rule="evenodd" fill="black" stroke="none"/></mask><path d=" M 209.301 234.426 L 218.052 234.426 L 218.052 237 L 209.301 237 L 209.301 234.426 Z " fill-rule="evenodd" fill="rgb(255,255,255)" mask="url(#_mask_UpLxYUiE1sUFTNTaZxRLV3LrdZ0oJKi4)" vector-effect="non-scaling-stroke" stroke-width="2" stroke="rgb(220,219,219)" stroke-opacity="100" stroke-linejoin="miter" stroke-linecap="butt" stroke-miterlimit="4"/><path d=" M 197.126 239 L 219.052 239 L 219.052 242.045 L 197.126 242.045 L 197.126 239 Z " fill-rule="evenodd" fill="rgb(200,198,198)"/></g><g><path d=" M 5.052 264.864 L 11.967 264.864 L 11.967 267.854 L 5.052 267.854 L 5.052 264.864 Z " fill-rule="evenodd" fill="rgb(220,219,219)"/><path d=" M 12.595 264.864 L 19.51 264.864 L 19.51 267.854 L 12.595 267.854 L 12.595 264.864 Z " fill-rule="evenodd" fill="rgb(220,219,219)"/><path d=" M 20.138 264.864 L 27.052 264.864 L 27.052 267.854 L 20.138 267.854 L 20.138 264.864 Z " fill-rule="evenodd" fill="rgb(188,187,187)"/><path d=" M 5.681 265.462 L 11.338 265.462 L 11.338 267.256 L 5.681 267.256 L 5.681 265.462 Z " fill-rule="evenodd" fill="rgb(255,255,255)"/><path d=" M 13.224 265.462 L 18.881 265.462 L 18.881 267.256 L 13.224 267.256 L 13.224 265.462 Z " fill-rule="evenodd" fill="rgb(255,255,255)"/></g><g><mask id="_mask_1fYdOmZpoXeEFswUWixofn7ir0tmpUo7"><path d=" M 38.052 262 L 58.052 262 L 58.052 265 L 38.052 265 L 38.052 262 Z " fill-rule="evenodd" fill="white" stroke="none"/></mask><path d=" M 38.052 262 L 58.052 262 L 58.052 265 L 38.052 265 L 38.052 262 Z " fill-rule="evenodd" fill="rgb(255,255,255)" mask="url(#_mask_1fYdOmZpoXeEFswUWixofn7ir0tmpUo7)" vector-effect="non-scaling-stroke" stroke-width="2" stroke="rgb(220,219,219)" stroke-linejoin="miter" stroke-linecap="butt" stroke-miterlimit="4"/><mask id="_mask_q091SPSDDbfSf0W0SYcyATeRuMb1jPiN"><path d=" M 38.052 266.126 L 58.052 266.126 L 58.052 269.126 L 38.052 269.126 L 38.052 266.126 Z " fill-rule="evenodd" fill="white" stroke="none"/></mask><path d=" M 38.052 266.126 L 58.052 266.126 L 58.052 269.126 L 38.052 269.126 L 38.052 266.126 Z " fill-rule="evenodd" fill="rgb(255,255,255)" mask="url(#_mask_q091SPSDDbfSf0W0SYcyATeRuMb1jPiN)" vector-effect="non-scaling-stroke" stroke-width="2" stroke="rgb(220,219,219)" stroke-linejoin="miter" stroke-linecap="butt" stroke-miterlimit="4"/><path d=" M 38.052 270.505 L 58.052 270.505 L 58.052 273.495 L 38.052 273.495 L 38.052 270.505 Z " fill-rule="evenodd" fill="rgb(188,187,187)"/></g><g><mask id="_mask_3yJ1pPnkLrHKwOeuyqx0Fy9sRRHtv3CS"><path d=" M 197.052 204 L 203.711 204 C 209.555 204 214.299 208.744 214.299 214.588 L 214.299 219 L 206.987 219 L 197.052 219 L 197.052 204 Z " fill="white" stroke="none"/></mask><path d=" M 197.052 204 L 203.711 204 C 209.555 204 214.299 208.744 214.299 214.588 L 214.299 219 L 206.987 219 L 197.052 219 L 197.052 204 Z " fill="rgb(235,235,235)" mask="url(#_mask_3yJ1pPnkLrHKwOeuyqx0Fy9sRRHtv3CS)" vector-effect="non-scaling-stroke" stroke-width="2" stroke="rgb(188,187,187)" stroke-linejoin="miter" stroke-linecap="square" stroke-miterlimit="3"/><rect x="198.712" y="218" width="14.466" height="1" transform="matrix(1,0,0,1,0,0)" fill="rgb(235,235,235)"/><rect x="197.052" y="205" width="5.293" height="14" transform="matrix(1,0,0,1,0,0)" fill="rgb(235,235,235)"/></g><g><mask id="_mask_5zeZVVzlY93iUle7HoNqrHqYHL4UjHC6"><path d=" M 5.052 233 L 18.052 233 C 20.812 233 23.052 235.24 23.052 238 L 23.052 247 L 5.052 247 L 5.052 233 Z " fill="white" stroke="none"/></mask><path d=" M 5.052 233 L 18.052 233 C 20.812 233 23.052 235.24 23.052 238 L 23.052 247 L 5.052 247 L 5.052 233 Z " fill="rgb(235,235,235)" mask="url(#_mask_5zeZVVzlY93iUle7HoNqrHqYHL4UjHC6)" vector-effect="non-scaling-stroke" stroke-width="2" stroke="rgb(188,187,187)" stroke-linejoin="miter" stroke-linecap="square" stroke-miterlimit="3"/></g><path d=" M 9.052 243 L 9.052 234 L 5.052 234 L 5.052 247 L 9.052 247 L 9.052 247 L 22.052 247 L 22.052 243 L 9.052 243 Z " fill="rgb(235,235,235)"/><circle vector-effect="non-scaling-stroke" cx="48.05236220472433" cy="238.2357455392244" r="5.366052631578967" fill="rgb(233,231,231)"/><mask id="_mask_VEM5HaZ9hKOQQj8VUbd1sAlIUK8zE8lj"><circle vector-effect="non-scaling-stroke" cx="79.97659369075683" cy="238.2357455392244" r="5.366052631578967" fill="white" stroke="none"/></mask><circle vector-effect="non-scaling-stroke" cx="79.97659369075683" cy="238.2357455392244" r="5.366052631578967" fill="rgb(255,255,255)" mask="url(#_mask_VEM5HaZ9hKOQQj8VUbd1sAlIUK8zE8lj)" stroke-width="2" stroke="rgb(191,190,190)" stroke-linejoin="miter" stroke-linecap="square" stroke-miterlimit="3"/><mask id="_mask_7cav0N2iymfFAjHsd7OhVwf74mm69YV2"><circle vector-effect="non-scaling-stroke" cx="111.68630957314542" cy="238.23574553922435" r="5.366052631578967" fill="white" stroke="none"/></mask><circle vector-effect="non-scaling-stroke" cx="111.68630957314542" cy="238.23574553922435" r="5.366052631578967" fill="rgb(255,255,255)" mask="url(#_mask_7cav0N2iymfFAjHsd7OhVwf74mm69YV2)" stroke-width="2" stroke="rgb(191,190,190)" stroke-linejoin="miter" stroke-linecap="square" stroke-miterlimit="3"/><g><rect x="110.686" y="233.199" width="2" height="2" transform="matrix(1,0,0,1,0,0)" fill="rgb(191,190,190)"/><rect x="108.686" y="235.199" width="2" height="2" transform="matrix(1,0,0,1,0,0)" fill="rgb(191,190,190)"/><rect x="108.686" y="239.199" width="2" height="2" transform="matrix(1,0,0,1,0,0)" fill="rgb(191,190,190)"/><rect x="112.686" y="235.199" width="2" height="2" transform="matrix(1,0,0,1,0,0)" fill="rgb(191,190,190)"/><rect x="112.686" y="239.199" width="2" height="2" transform="matrix(1,0,0,1,0,0)" fill="rgb(191,190,190)"/><rect x="114.686" y="237.199" width="2" height="2" transform="matrix(1,0,0,1,0,0)" fill="rgb(191,190,190)"/><rect x="106.686" y="237.199" width="2" height="2" transform="matrix(1,0,0,1,0,0)" fill="rgb(191,190,190)"/><rect x="110.686" y="237.199" width="2" height="2" transform="matrix(1,0,0,1,0,0)" fill="rgb(191,190,190)"/><rect x="110.686" y="241.199" width="2" height="2" transform="matrix(1,0,0,1,0,0)" fill="rgb(191,190,190)"/></g><g><g><path d=" M 143.619 229 L 144.752 229 L 144.752 231.931 L 143.619 231.931 L 143.619 229 Z " fill-rule="evenodd" fill="rgb(188,187,187)"/><path d=" M 143.619 232.517 L 144.752 232.517 L 144.752 234.862 L 143.619 234.862 L 143.619 232.517 Z " fill-rule="evenodd" fill="rgb(188,187,187)"/><path d=" M 143.619 235.448 L 144.752 235.448 L 144.752 237.793 L 143.619 237.793 L 143.619 235.448 Z " fill-rule="evenodd" fill="rgb(188,187,187)"/><path d=" M 143.619 238.379 L 144.752 238.379 L 144.752 246 L 143.619 246 L 143.619 238.379 Z " fill-rule="evenodd" fill="rgb(188,187,187)"/></g><path d=" M 140.791 241.403 L 144.068 245.106 L 143.588 246 L 140.035 242.059 L 140.791 241.403 Z " fill="rgb(188,187,187)"/><path d=" M 144.792 246 L 148.069 242.297 L 147.59 241.403 L 144.037 245.345 L 144.792 246 Z " fill="rgb(188,187,187)"/></g><g><g><path d=" M 167.466 237.934 L 167.466 236.801 L 170.397 236.801 L 170.397 237.934 L 167.466 237.934 Z " fill-rule="evenodd" fill="rgb(188,187,187)"/><path d=" M 170.983 237.934 L 170.983 236.801 L 173.328 236.801 L 173.328 237.934 L 170.983 237.934 Z " fill-rule="evenodd" fill="rgb(188,187,187)"/><path d=" M 173.914 237.934 L 173.914 236.801 L 176.259 236.801 L 176.259 237.934 L 173.914 237.934 Z " fill-rule="evenodd" fill="rgb(188,187,187)"/><path d=" M 176.845 237.934 L 176.845 236.801 L 184.466 236.801 L 184.466 237.934 L 176.845 237.934 Z " fill-rule="evenodd" fill="rgb(188,187,187)"/></g><path d=" M 179.869 240.762 L 183.572 237.484 L 184.466 237.964 L 180.525 241.517 L 179.869 240.762 Z " fill="rgb(188,187,187)"/><path d=" M 184.466 236.76 L 180.763 233.483 L 179.869 233.963 L 183.811 237.516 L 184.466 236.76 Z " fill="rgb(188,187,187)"/></g><g><g><path d=" M 177.062 222.4 L 175.929 222.4 L 175.929 197.4 L 177.062 197.4 L 177.062 222.4 Z " fill-rule="evenodd" fill="rgb(188,187,187)"/></g><path d=" M 179.89 201.997 L 176.613 198.294 L 177.092 197.4 L 180.645 201.341 L 179.89 201.997 Z " fill="rgb(188,187,187)"/><path d=" M 175.889 197.4 L 172.611 201.103 L 173.091 201.997 L 176.644 198.055 L 175.889 197.4 Z " fill="rgb(188,187,187)"/><path d=" M 179.906 217.9 L 176.628 221.603 L 177.108 222.497 L 180.661 218.555 L 179.906 217.9 Z " fill="rgb(188,187,187)"/><path d=" M 175.904 222.497 L 172.627 218.794 L 173.107 217.9 L 176.659 221.841 L 175.904 222.497 Z " fill="rgb(188,187,187)"/></g><g><g><path d=" M 97 211.146 L 97 209.946 L 127 209.946 L 127 211.146 L 97 211.146 Z " fill-rule="evenodd" fill="rgb(188,187,187)"/></g><path d=" M 121.2 215.086 L 125.789 210.2 L 126.898 210.915 L 122.012 216.212 L 121.2 215.086 Z " fill="rgb(188,187,187)"/><path d=" M 126.898 209.886 L 122.309 205 L 121.2 205.715 L 126.086 211.012 L 126.898 209.886 Z " fill="rgb(188,187,187)"/><path d=" M 102.698 215.109 L 98.109 210.223 L 97 210.938 L 101.886 216.235 L 102.698 215.109 Z " fill="rgb(188,187,187)"/><path d=" M 97 209.9 L 101.589 205.023 L 102.698 205.737 L 97.812 211.023 L 97 209.9 Z " fill="rgb(188,187,187)"/></g><g><path d=" M 129.1 196.9 L 134.77 196.9 L 134.77 222.9 L 129.1 222.9 L 129.1 196.9 Z " fill-rule="evenodd" fill="rgb(243,243,243)"/><path d=" M 134.061 196.9 L 134.77 196.9 L 134.77 199.129 L 134.061 199.129 L 134.061 196.9 Z " fill-rule="evenodd" fill="rgb(179,179,179)"/><path d=" M 134.061 199.871 L 134.77 199.871 L 134.77 202.1 L 134.061 202.1 L 134.061 199.871 Z " fill-rule="evenodd" fill="rgb(179,179,179)"/><path d=" M 134.061 202.843 L 134.77 202.843 L 134.77 205.071 L 134.061 205.071 L 134.061 202.843 Z " fill-rule="evenodd" fill="rgb(179,179,179)"/><path d=" M 134.061 205.814 L 134.77 205.814 L 134.77 208.043 L 134.061 208.043 L 134.061 205.814 Z " fill-rule="evenodd" fill="rgb(179,179,179)"/><path d=" M 134.061 208.786 L 134.77 208.786 L 134.77 211.014 L 134.061 211.014 L 134.061 208.786 Z " fill-rule="evenodd" fill="rgb(179,179,179)"/><path d=" M 134.061 211.757 L 134.77 211.757 L 134.77 213.986 L 134.061 213.986 L 134.061 211.757 Z " fill-rule="evenodd" fill="rgb(179,179,179)"/><path d=" M 134.061 214.729 L 134.77 214.729 L 134.77 216.957 L 134.061 216.957 L 134.061 214.729 Z " fill-rule="evenodd" fill="rgb(179,179,179)"/><path d=" M 134.061 217.7 L 134.77 217.7 L 134.77 219.929 L 134.061 219.929 L 134.061 217.7 Z " fill-rule="evenodd" fill="rgb(179,179,179)"/><path d=" M 134.061 220.671 L 134.77 220.671 L 134.77 222.9 L 134.061 222.9 L 134.061 220.671 Z " fill-rule="evenodd" fill="rgb(179,179,179)"/><path d=" M 153.43 196.9 L 159.1 196.9 L 159.1 222.9 L 153.43 222.9 L 153.43 196.9 Z " fill-rule="evenodd" fill="rgb(243,243,243)"/><g><path d=" M 153.43 196.9 L 154.139 196.9 L 154.139 199.129 L 153.43 199.129 L 153.43 196.9 Z " fill-rule="evenodd" fill="rgb(179,179,179)"/><path d=" M 153.43 199.871 L 154.139 199.871 L 154.139 202.1 L 153.43 202.1 L 153.43 199.871 Z " fill-rule="evenodd" fill="rgb(179,179,179)"/><path d=" M 153.43 202.843 L 154.139 202.843 L 154.139 205.071 L 153.43 205.071 L 153.43 202.843 Z " fill-rule="evenodd" fill="rgb(179,179,179)"/><path d=" M 153.43 205.814 L 154.139 205.814 L 154.139 208.043 L 153.43 208.043 L 153.43 205.814 Z " fill-rule="evenodd" fill="rgb(179,179,179)"/><path d=" M 153.43 208.786 L 154.139 208.786 L 154.139 211.014 L 153.43 211.014 L 153.43 208.786 Z " fill-rule="evenodd" fill="rgb(179,179,179)"/><path d=" M 153.43 211.757 L 154.139 211.757 L 154.139 213.986 L 153.43 213.986 L 153.43 211.757 Z " fill-rule="evenodd" fill="rgb(179,179,179)"/><path d=" M 153.43 214.729 L 154.139 214.729 L 154.139 216.957 L 153.43 216.957 L 153.43 214.729 Z " fill-rule="evenodd" fill="rgb(179,179,179)"/><path d=" M 153.43 217.7 L 154.139 217.7 L 154.139 219.929 L 153.43 219.929 L 153.43 217.7 Z " fill-rule="evenodd" fill="rgb(179,179,179)"/><path d=" M 153.43 220.671 L 154.139 220.671 L 154.139 222.9 L 153.43 222.9 L 153.43 220.671 Z " fill-rule="evenodd" fill="rgb(179,179,179)"/></g></g><g><path d=" M 69.052 203.75 L 90.901 203.75 L 90.901 215.959 L 69.052 215.959 L 69.052 203.75 Z " fill-rule="evenodd" fill="rgb(206,203,203)"/><path d=" M 76.121 207.606 L 83.832 207.606 L 83.832 208.248 L 76.121 208.248 L 76.121 207.606 Z " fill-rule="evenodd" fill="rgb(255,255,255)"/><path d=" M 74.193 209.533 L 86.403 209.533 L 86.403 210.176 L 74.193 210.176 L 74.193 209.533 Z " fill-rule="evenodd" fill="rgb(255,255,255)"/><path d=" M 74.193 210.819 L 86.403 210.819 L 86.403 211.461 L 74.193 211.461 L 74.193 210.819 Z " fill-rule="evenodd" fill="rgb(255,255,255)"/><path d=" M 74.193 212.104 L 86.403 212.104 L 86.403 212.746 L 74.193 212.746 L 74.193 212.104 Z " fill-rule="evenodd" fill="rgb(255,255,255)"/></g><g><path d=" M 5.052 207.401 L 9.303 207.401 L 9.303 210.943 L 5.052 210.943 L 5.052 207.401 Z " fill-rule="evenodd" fill="rgb(220,219,219)"/><path d=" M 10.011 207.401 L 16.387 207.401 L 16.387 208.818 L 10.011 208.818 L 10.011 207.401 Z " fill-rule="evenodd" fill="rgb(220,219,219)"/><path d=" M 10.011 209.526 L 24.179 209.526 L 24.179 210.235 L 10.011 210.235 L 10.011 209.526 Z " fill-rule="evenodd" fill="rgb(220,219,219)"/><path d=" M 10.011 210.943 L 24.179 210.943 L 24.179 211.651 L 10.011 211.651 L 10.011 210.943 Z " fill-rule="evenodd" fill="rgb(220,219,219)"/><path d=" M 10.011 212.36 L 24.179 212.36 L 24.179 213.068 L 10.011 213.068 L 10.011 212.36 Z " fill-rule="evenodd" fill="rgb(220,219,219)"/><path d=" M 10.011 213.777 L 24.179 213.777 L 24.179 214.485 L 10.011 214.485 L 10.011 213.777 Z " fill-rule="evenodd" fill="rgb(220,219,219)"/><path d=" M 24.887 207.401 L 27.012 207.401 L 27.012 208.818 L 24.887 208.818 L 24.887 207.401 Z " fill-rule="evenodd" fill="rgb(220,219,219)"/></g><path d=" M 43.6 203.008 L 53.294 203.008 C 54.398 203.008 55.294 203.904 55.294 205.008 L 55.294 214.702 C 55.294 215.806 54.398 216.702 53.294 216.702 L 43.6 216.702 C 42.496 216.702 41.6 215.806 41.6 214.702 L 41.6 205.008 C 41.6 203.904 42.496 203.008 43.6 203.008 Z  M 43.602 204.01 L 53.292 204.01 C 53.562 204.01 53.812 204.11 54.002 204.3 C 54.192 204.49 54.292 204.74 54.292 205.01 L 54.292 214.7 C 54.292 214.97 54.192 215.22 54.002 215.41 C 53.812 215.6 53.562 215.7 53.292 215.7 L 43.602 215.7 C 43.332 215.7 43.082 215.6 42.892 215.41 C 42.702 215.22 42.602 214.97 42.602 214.7 L 42.602 205.01 C 42.602 204.74 42.702 204.49 42.892 204.3 C 43.082 204.11 43.332 204.01 43.602 204.01 Z " fill-rule="evenodd" fill="rgb(220,219,219)"/><path d=" M 41.565 205.966 L 42.892 204.01 L 54.002 203.625 L 55.259 205.966 L 55.259 214.66 C 55.259 215.764 54.363 216.66 53.259 216.66 L 43.565 216.66 C 42.461 216.66 41.565 215.764 41.565 214.66 L 41.565 205.966 Z  M 42.562 210.971 L 54.262 210.971 L 54.262 214.661 C 54.262 214.921 54.152 215.181 53.962 215.371 C 53.782 215.551 53.522 215.661 53.262 215.661 L 43.562 215.661 C 43.302 215.661 43.042 215.551 42.862 215.371 C 42.672 215.181 42.562 214.921 42.562 214.661 L 42.562 210.971 Z " fill-rule="evenodd" fill="rgb(220,219,219)"/><rect x="44.16" y="211.981" width="8.529" height="1.153" transform="matrix(1,0,0,1,0,0)" fill="rgb(220,219,219)"/><rect x="45.443" y="213.946" width="6.007" height="0.755" transform="matrix(1,0,0,1,0,0)" fill="rgb(220,219,219)"/></g></svg>